<svg width="100" height="125" style="fill:white" xmlns="http://www.w3.org/2000/svg">

 <g>
  <title>background</title>
  <rect fill="none" id="canvas_background" height="402" width="582" y="-1" x="-1"/>
 </g>
 <g>
  <title>Layer 1</title>
  <g id="svg_1">
   <path id="svg_2" d="m21.925999,94.258986c-0.738,-0.135 -1.488,0.026 -2.106,0.455s-1.033,1.071 -1.167,1.812c-0.099,0.548 -0.022,1.096 0.185,1.587c-0.105,0.068 -0.21,0.142 -0.314,0.228c-0.452,0.374 -0.516,1.044 -0.141,1.496c0.21,0.254 0.514,0.386 0.819,0.386c0.239,0 0.479,-0.08 0.677,-0.245c0.331,-0.273 0.717,-0.304 0.747,-0.306c0.02,0 0.035,-0.011 0.054,-0.012c0.381,-0.012 0.745,-0.225 0.925,-0.592c0.258,-0.527 0.041,-1.164 -0.487,-1.422c-0.274,-0.135 -0.428,-0.439 -0.373,-0.74c0.033,-0.181 0.134,-0.339 0.286,-0.443c0.151,-0.105 0.334,-0.146 0.515,-0.111c0.181,0.033 0.338,0.135 0.443,0.286s0.145,0.334 0.112,0.513c-0.021,0.117 -0.07,0.224 -0.145,0.315c-0.37,0.456 -0.3,1.125 0.156,1.495c0.456,0.369 1.125,0.3 1.495,-0.157c0.297,-0.365 0.499,-0.805 0.584,-1.271c0.134,-0.74 -0.027,-1.487 -0.456,-2.106c-0.426,-0.619 -1.07,-1.033 -1.809,-1.168z" fill="#fffff"/>
   <path id="svg_3" d="m30.846999,89.977986c-0.891,-0.65 -1.979,-0.913 -3.069,-0.743c-0.58,0.091 -0.977,0.635 -0.886,1.215c0.091,0.579 0.638,0.979 1.215,0.885c0.528,-0.078 1.055,0.046 1.486,0.361c0.432,0.314 0.715,0.779 0.798,1.308c0.083,0.528 -0.044,1.056 -0.358,1.487c-0.315,0.432 -0.78,0.716 -1.309,0.799c-0.526,0.078 -1.056,-0.044 -1.487,-0.36c-0.431,-0.314 -0.714,-0.778 -0.797,-1.306c-0.09,-0.58 -0.631,-0.976 -1.215,-0.886c-0.58,0.091 -0.977,0.634 -0.886,1.214c0.17,1.09 0.755,2.047 1.645,2.696c0.713,0.52 1.555,0.792 2.421,0.792c0.215,0 0.431,-0.017 0.647,-0.051c1.09,-0.171 2.048,-0.756 2.697,-1.646s0.912,-1.98 0.741,-3.068c-0.169,-1.09 -0.753,-2.047 -1.643,-2.697z" fill="#fffff"/>
   <path id="svg_4" d="m33.066999,87.271986c-0.64,-0.562 -1.244,-1.095 -1.71,-1.712c-0.338,-0.448 -0.468,-0.993 -0.617,-1.625c-0.154,-0.651 -0.33,-1.391 -0.772,-2.094c-1.256,-2.005 -3.821,-3.555 -6.86,-4.145c-3.696,-0.712 -7.075,0.482 -9.509,3.352c-2.584,3.046 -3.804,7.742 -3.107,11.964c1.013,6.158 6.438,10.46 13.193,10.46c0,0 0,0 0.001,0c1.545,0 3.063,-0.24 4.458,-0.697c3.513,-0.947 7.64,-3.241 8.686,-6.839c0.48,-1.651 0.474,-4.252 -2.284,-7.264c-0.472,-0.512 -0.984,-0.963 -1.479,-1.4zm1.72,8.071c-0.659,2.267 -3.484,4.378 -7.251,5.396c-1.235,0.403 -2.531,0.608 -3.851,0.608c0,0 0,0 -0.001,0c-4.656,0 -10.114,-2.717 -11.095,-8.68c-0.6,-3.632 0.433,-7.652 2.63,-10.242c0.177,-0.209 0.384,-0.423 0.604,-0.637c-0.354,0.389 -0.383,0.977 -0.046,1.384c-1.917,1.458 -2.74,4.047 -1.874,6.11c0.415,0.989 1.178,1.712 2.145,2.081c0.015,0.006 0.025,0.02 0.041,0.025c0.016,0.006 0.033,0.008 0.049,0.014c0.038,0.014 0.07,0.036 0.108,0.048c0.12,0.038 0.245,0.06 0.369,0.086c0.064,0.015 0.126,0.034 0.191,0.045c0.106,0.017 0.215,0.02 0.322,0.028c0.106,0.009 0.212,0.028 0.319,0.028c0.373,0 0.746,-0.062 1.114,-0.162c0.059,-0.016 0.118,-0.024 0.176,-0.042c0.06,-0.02 0.117,-0.046 0.176,-0.066c0.362,-0.126 0.722,-0.288 1.071,-0.506c0.242,-0.171 0.749,-0.393 0.958,-0.335c0.037,0.009 0.081,0.091 0.099,0.125c0.264,0.524 0.902,0.736 1.427,0.472c0.524,-0.264 0.736,-0.902 0.472,-1.427c-0.289,-0.575 -0.683,-0.888 -1.048,-1.066c0,-0.001 0,-0.001 0.001,-0.002c0.595,-1.257 0.669,-2.646 0.205,-3.809c-0.392,-0.979 -1.133,-1.721 -2.089,-2.089c-0.548,-0.208 -1.163,0.061 -1.375,0.61c-0.211,0.548 0.062,1.163 0.61,1.374c0.51,0.196 0.76,0.594 0.879,0.894c0.246,0.616 0.191,1.385 -0.153,2.111c-0.306,0.647 -0.805,1.16 -1.358,1.47c-0.039,0.021 -0.078,0.041 -0.118,0.06c-0.083,0.042 -0.167,0.078 -0.252,0.109c-0.125,0.045 -0.251,0.083 -0.376,0.106c-0.017,0.004 -0.034,0.009 -0.051,0.012c-0.155,0.026 -0.308,0.036 -0.457,0.029c-0.005,-0.001 -0.011,0 -0.017,0c-0.101,-0.006 -0.195,-0.031 -0.292,-0.053c-0.065,-0.016 -0.132,-0.022 -0.194,-0.047c-0.004,-0.002 -0.008,-0.001 -0.012,-0.002c-0.445,-0.156 -0.786,-0.479 -0.981,-0.945c-0.517,-1.229 0.151,-2.958 1.388,-3.732c0.329,-0.171 0.715,-0.558 0.814,-1.129c0.104,-0.604 -0.127,-1.219 -0.689,-1.824c-0.38,-0.409 -1.003,-0.44 -1.434,-0.098c1.131,-1.059 2.797,-2.057 5.094,-2.057c0.539,0 1.1,0.056 1.666,0.166c1.908,0.37 4.345,1.401 5.464,3.188c0.256,0.406 0.371,0.892 0.504,1.452c0.179,0.756 0.382,1.612 0.989,2.417c0.597,0.79 1.312,1.419 2.002,2.027c0.474,0.417 0.922,0.812 1.315,1.24c1.68,1.833 2.289,3.594 1.812,5.235z" fill="#fffff"/>
   <path id="svg_5" d="m94.083999,20.218986c-0.414,-0.411 -1.078,-0.414 -1.493,-0.008c-0.117,0.115 -11.664,11.354 -25.503,22.628c-0.124,-0.328 -0.252,-0.693 -0.349,-0.968c-0.599,-1.711 -0.899,-2.571 -1.869,-2.571c-0.349,0 -0.758,0.225 -0.956,0.51c-2.916,4.189 -8.018,10.111 -12.589,13.98c-0.138,-0.755 -0.28,-1.7 -0.383,-2.38c-0.479,-3.176 -0.579,-3.837 -1.648,-3.837c-0.383,0 -0.775,0.239 -0.964,0.572c-1.762,3.108 -7.817,10.565 -11.767,14.32c-0.084,-0.568 -0.162,-1.221 -0.219,-1.706c-0.292,-2.467 -0.412,-3.489 -1.562,-3.489c-0.399,0 -0.759,0.207 -0.985,0.565c-3.799,5.989 -7.885,10.302 -10.945,13.07c-0.285,-1.018 -0.608,-2.451 -0.707,-3.292c0.143,-0.36 0.248,-0.812 -0.033,-1.251c-0.348,-0.542 -1.152,-0.66 -1.701,-0.189c-0.35,0.302 -0.419,0.721 -0.422,1.043c-0.798,1.58 -3.755,6.3 -8,10.543c-3.28,3.28 -5.086,7.641 -5.086,12.279c0,4.638 1.807,8.998 5.086,12.278c3.281,3.28 7.642,5.087 12.28,5.087s8.999,-1.807 12.279,-5.087l0.164,-0.165c1.357,-1.362 5.487,-5.511 11.426,-9.395c0.394,-0.257 0.59,-0.768 0.456,-1.219c-0.24,-0.804 -1.053,-0.804 -1.444,-0.804c-0.466,0 -1.251,0.039 -2.09,0.081c-0.338,0.018 -0.694,0.035 -1.041,0.051c2.888,-2.833 7.245,-6.078 13.374,-10.399c0.353,-0.249 0.55,-0.741 0.452,-1.162c-0.203,-0.879 -0.824,-0.979 -3.808,-1.463c-0.537,-0.087 -1.262,-0.205 -1.885,-0.321c3.166,-3.338 8.968,-8.351 12.251,-11.188c0.762,-0.657 1.388,-1.198 1.815,-1.576c0.331,-0.292 0.472,-0.813 0.315,-1.227c-0.311,-0.823 -1.159,-0.823 -2.564,-0.823c-0.467,0 -0.999,0.008 -1.54,0.016c-0.53,0.008 -1.069,0.016 -1.563,0.016c4.182,-4.755 11.84,-11.392 15.706,-14.178c0.375,-0.27 0.568,-0.806 0.427,-1.245c-0.264,-0.818 -1.115,-0.818 -1.679,-0.818c-0.502,0 -1.226,0.034 -1.984,0.069c-0.432,0.021 -0.874,0.042 -1.291,0.057c11.077,-13.576 21.938,-24.795 22.051,-24.911c0.405,-0.417 0.399,-1.082 -0.012,-1.493zm-24.938,26.603c-0.257,0.318 -0.326,0.831 -0.149,1.2c0.357,0.749 1.226,0.749 2.065,0.749c0.515,0 1.153,-0.024 1.8,-0.053c-4.773,3.799 -11.637,10.011 -14.896,14.179c-0.249,0.32 -0.308,0.82 -0.129,1.185c0.366,0.75 1.223,0.783 2.971,0.783c0.52,0 1.091,-0.008 1.651,-0.017c0.14,-0.002 0.279,-0.004 0.416,-0.006c-3.763,3.252 -10.577,9.151 -13.387,12.454c-0.249,0.293 -0.337,0.769 -0.205,1.129c0.302,0.819 1.096,0.978 4.412,1.516c0.195,0.031 0.405,0.065 0.619,0.101c-6.599,4.696 -10.79,7.97 -13.479,11.109c-0.27,0.315 -0.342,0.799 -0.168,1.176c0.328,0.713 1.114,0.713 1.807,0.713c0.445,0 1.001,-0.02 1.592,-0.046c-4.556,3.336 -7.698,6.49 -8.86,7.658l-0.161,0.161c-2.879,2.879 -6.706,4.464 -10.776,4.464s-7.897,-1.585 -10.777,-4.464c-2.878,-2.878 -4.463,-6.705 -4.463,-10.774c0,-4.07 1.585,-7.897 4.463,-10.775c3.056,-3.055 5.497,-6.365 7.008,-8.721c0.375,1.583 0.989,3.195 1.937,3.195c0.254,0 0.527,-0.102 0.72,-0.268c2.911,-2.495 7.069,-6.597 11.08,-12.441c0.341,2.887 0.515,4.336 1.826,4.336c0.289,0 0.562,-0.103 0.792,-0.298c3.371,-2.865 8.979,-9.496 11.93,-13.713c0.02,0.128 0.038,0.253 0.056,0.373c0.584,3.876 0.742,4.918 1.946,4.918c0.238,0 0.513,-0.097 0.7,-0.243c4.534,-3.55 9.813,-9.45 13.186,-14.004c0.021,0.061 0.042,0.12 0.062,0.176c0.633,1.806 1.015,2.896 2.066,2.896c0.243,0 0.562,-0.115 0.752,-0.268c3.462,-2.801 6.796,-5.615 9.861,-8.272c-2.656,3.075 -5.468,6.419 -8.268,9.892z" fill="#fffff"/>
   <path id="svg_6" d="m32.751999,70.764986c0.312,0 0.62,-0.137 0.83,-0.399l0.647,-0.809c0.367,-0.458 0.293,-1.127 -0.165,-1.494c-0.458,-0.364 -1.127,-0.293 -1.494,0.166l-0.647,0.809c-0.367,0.458 -0.293,1.127 0.165,1.494c0.197,0.155 0.431,0.233 0.664,0.233z" fill="#fffff"/>
   <path id="svg_7" d="m25.957999,77.073986c0.264,0 0.529,-0.099 0.734,-0.295l3.476,-3.322c0.424,-0.406 0.44,-1.079 0.034,-1.503c-0.407,-0.425 -1.079,-0.438 -1.503,-0.034l-3.476,3.322c-0.424,0.406 -0.44,1.079 -0.034,1.503c0.209,0.219 0.489,0.329 0.769,0.329z" fill="#fffff"/>
   <path id="svg_8" d="m44.475999,80.581986l-1.731,1.656c-0.424,0.406 -0.439,1.079 -0.033,1.503c0.209,0.219 0.488,0.329 0.768,0.329c0.264,0 0.529,-0.099 0.735,-0.295l1.731,-1.656c0.424,-0.406 0.439,-1.079 0.033,-1.503c-0.406,-0.425 -1.079,-0.438 -1.503,-0.034z" fill="#fffff"/>
   <path id="svg_9" d="m39.930999,84.929986l-2.897,2.771c-0.424,0.406 -0.439,1.079 -0.033,1.503c0.208,0.219 0.488,0.329 0.768,0.329c0.264,0 0.529,-0.099 0.735,-0.295l2.897,-2.771c0.424,-0.406 0.439,-1.079 0.033,-1.503c-0.404,-0.425 -1.078,-0.439 -1.503,-0.034z" fill="#fffff"/>
   <path id="svg_10" d="m50.507999,60.068986c-0.405,-0.424 -1.078,-0.439 -1.503,-0.033l-2.225,2.129c-0.424,0.406 -0.439,1.079 -0.033,1.503c0.209,0.219 0.488,0.328 0.768,0.328c0.264,0 0.529,-0.098 0.735,-0.295l2.226,-2.129c0.423,-0.406 0.438,-1.079 0.032,-1.503z" fill="#fffff"/>
   <path id="svg_11" d="m40.397999,70.806986c0.264,0 0.529,-0.099 0.735,-0.296l3.8,-3.636c0.424,-0.405 0.439,-1.078 0.033,-1.503c-0.405,-0.423 -1.078,-0.438 -1.503,-0.032l-3.8,3.636c-0.424,0.405 -0.439,1.078 -0.033,1.503c0.209,0.217 0.489,0.328 0.768,0.328z" fill="#fffff"/>
   <path id="svg_12" d="m30.204999,79.496986c0.209,0.218 0.488,0.328 0.768,0.328c0.264,0 0.529,-0.099 0.735,-0.296l5.372,-5.142c0.424,-0.405 0.439,-1.078 0.033,-1.503c-0.406,-0.423 -1.078,-0.438 -1.503,-0.032l-5.372,5.142c-0.425,0.405 -0.439,1.078 -0.033,1.503z" fill="#fffff"/>
   <path id="svg_13" d="m52.564999,65.049986l-3.971,3.798c-0.424,0.406 -0.439,1.079 -0.033,1.503c0.208,0.219 0.488,0.329 0.768,0.329c0.264,0 0.529,-0.099 0.735,-0.295l3.97,-3.798c0.425,-0.406 0.439,-1.079 0.034,-1.503c-0.406,-0.426 -1.081,-0.439 -1.503,-0.034z" fill="#fffff"/>
   <path id="svg_14" d="m44.306999,74.422986c-0.406,-0.423 -1.078,-0.438 -1.503,-0.032l-9.007,8.619c-0.424,0.405 -0.439,1.078 -0.033,1.503c0.209,0.218 0.488,0.328 0.768,0.328c0.264,0 0.529,-0.099 0.735,-0.296l9.007,-8.619c0.424,-0.405 0.439,-1.078 0.033,-1.503z" fill="#fffff"/>
  </g>
 </g>
</svg>
